<svg id="Icons" xmlns="http://www.w3.org/2000/svg" width="64" height="60" viewBox="0 0 64 60">
  <defs>
    <style>
      .cls-1 {
        fill-rule: evenodd;
      }
    </style>
  </defs>
  <path id="Test_2" data-name="Test 2" class="cls-1" d="M46.005,13.012L24.683,16.8v24.1A3.852,3.852,0,0,0,22.06,40.2,6.8,6.8,0,0,0,18.079,41.8a4.793,4.793,0,0,0-2.086,3.5,2.435,2.435,0,0,0,.948,1.969,3.611,3.611,0,0,0,2.275.75,7.1,7.1,0,0,0,4.171-1.5,4.715,4.715,0,0,0,2.086-3.624V19.611l19.75-3.5v21.14a3.852,3.852,0,0,0-2.623-.687,6.8,6.8,0,0,0-3.982,1.593,4.793,4.793,0,0,0-2.086,3.5,2.434,2.434,0,0,0,.948,1.968,3.611,3.611,0,0,0,2.275.75,7.1,7.1,0,0,0,4.172-1.5,4.716,4.716,0,0,0,2.086-3.624Z"/>
</svg>
