<svg id="Icons" xmlns="http://www.w3.org/2000/svg" width="64" height="60" viewBox="0 0 64 60">
  <defs>
    <style>
      .cls-1 {
        fill-rule: evenodd;
      }
    </style>
  </defs>
  <path class="cls-1" d="M34.008,8.989h1V42.6c-0.08,3.452-4.436,6.388-7.754,6.388a5.073,5.073,0,0,1-2.8-.556c-1.279-.833-1.479-2.222-1.439-3.69,0.12-3.531,4.317-6.27,7.754-6.388a5.074,5.074,0,0,1,3.237.833V8.989ZM24.256,46.527c0,0.555.28,0.754,0.96,0.873,1.159,0.08,3.317-.833,5.115-2.222,1.838-1.349,3.557-3.254,3.437-4.484a0.892,0.892,0,0,0-.839-0.754c-1.719-.318-4.836,1.825-6.075,2.817C25.336,43.988,24.177,45.377,24.256,46.527Z"/>
</svg>
